<svg xmlns="http://www.w3.org/2000/svg" viewBox="195 220 909 491" width="909" height="491"><defs><filter id="a" filterUnits="userSpaceOnUse" x="104.1" y="170.9"><feGaussianBlur in="SourceAlpha" result="blur" stdDeviation="5.232"/><feOffset in="blur" result="offset" dy="1"/><feFlood flood-color="#000" flood-opacity=".5" result="flood"/><feComposite in="flood" in2="offset" operator="in"/></filter></defs><g fill="none"><g filter="url(#a)"><path d="M244.75 492.35v-45.2c0-3.119 11.648-5.65 26-5.65s26 2.531 26 5.65v45.2c0 3.119-11.648 5.65-26 5.65s-26-2.531-26-5.65" fill="#fff"/><path d="M244.744 493.03l.424-46.886c-.315-2.05 11.595-3.245 25.582-4.644 13.653.84 26.02 2.76 26 5.65m0-.493l.008 46.646c.17 2.05-11.748 5.432-26.008 4.697-14.935.636-25.742-2.828-26-5.65m0-45.2c.006 3.143 11.55 4.276 26 5.65 13.306 1.138 25.775-2.327 26-5.65m-51.981 45.754l.491-46.22c-.157-2.84 11.753-4.035 25.74-5.434 13.653.84 26.02 2.76 26 5.65m-.018-.368l-.075 45.723c.271 2.848-11.647 6.23-25.907 5.495-14.935.636-25.742-2.828-26-5.65m-.25-44.95c.256 2.893 11.8 4.026 26.25 5.4 13.306 1.138 25.775-2.327 26-5.65" stroke="#521b93" stroke-linecap="round" stroke-linejoin="round" stroke-width="2"/></g><g filter="url(#a)"><path d="M484.3 489.5h-77.6c-5.354 0-9.7-8.848-9.7-19.75s4.346-19.75 9.7-19.75h77.6c5.354 0 9.7 8.848 9.7 19.75s-4.346 19.75-9.7 19.75" fill="#fff"/><path d="M484.784 489.498l-78.457.369c-5.345-.668-9.319-8.978-9.327-20.117-.738-11.965 4.809-19.566 9.7-19.75m-.298-.002l78.453.414c5.327-.513 10.081 9.392 9.145 19.338.35 10.036-3.877 19.702-9.7 19.75m-77.6 0c5.491-.346 9.126-8.163 9.7-19.75-.418-10.29-4.7-19.46-9.7-19.75m78.209 39.406l-77.8.387c-5.877-.844-9.851-9.154-9.859-20.293-.738-11.965 4.809-19.566 9.7-19.75m-.423.061l77.462.44c6.443-.602 11.197 9.303 10.261 19.249.35 10.036-3.877 19.702-9.7 19.75m-77.85.25c5.741-.596 9.376-8.413 9.95-20-.418-10.29-4.7-19.46-9.7-19.75" stroke="#521b93" stroke-linecap="round" stroke-linejoin="round" stroke-width="2"/></g><g filter="url(#a)"><path d="M604.875 472.785c-13.172-3.035-7.92-28.582 13.093-24.223 1.95-8.497 26.384-7.117 26.224 0 15.322-9.103 34.901 9.05 21.768 18.153 15.76 4.414-.199 28.195-13.132 24.223-1.035 6.62-24.156 8.938-26.185 0-13.092 9.545-40.391-5.132-21.768-18.153z" fill="#fff"/><path d="M604.875 472.785c-13.105-3.65-6.68-29.877 13.093-24.223 1.981-7.859 25.913-7.15 26.224 0 14.455-7.852 36.41 8.896 21.768 18.153 16.52 3.694-1.072 28.63-13.132 24.223-.977 6.996-24.76 8.7-26.185 0-13.782 9.917-38.792-6.024-21.768-18.153m0 0c-12.855-3.9-6.43-30.127 13.343-24.473 1.981-7.859 25.913-7.15 26.224 0 14.455-7.852 36.41 8.896 21.768 18.153 16.52 3.694-1.072 28.63-13.132 24.223-.977 6.996-24.76 8.7-26.185 0-13.782 9.917-38.792-6.024-21.768-18.153" stroke="#521b93" stroke-linecap="round" stroke-linejoin="round" stroke-width="2"/></g><g filter="url(#a)"><path d="M776 469.75l27.793-28.25v18.664h41.414V441.5L873 469.75 845.207 498v-18.664h-41.414V498z" fill="#fff"/><path d="M775.544 470.207l28.59-28.676m-.45.096l.287 19.043m-.814-.907l42.145-.015m-.466.59l.136-19.395m-.185.305l29.165 28.942m-.086-1.311l-28.92 29.126m.31.59l.025-19.96m.543.941l-42.13-.442m.341-.448l-.354 19.874m.572.325l-28.777-29.675m.135.813l28.195-28.178m.061-.344l.3 18.136m-.885-.004l41.683-.063m-.094.642l.162-18.91m-.056-.246l28.41 28.307m.643-.57l-28.595 28.827m-.068.85l-.04-19.025m.621.052l-41.796-.482m.114-.453l-.389 19.615m.415.666l-28.22-29.166" stroke="#521b93" stroke-linecap="round" stroke-linejoin="round" stroke-width="2"/></g><g filter="url(#a)"><path d="M811.755 596.507l13.321 13.32 14.474-14.473 13.313 13.313-14.474 14.474 13.321 13.32-14.465 14.466-13.321-13.321-14.474 14.474-13.313-13.313 14.474-14.474-13.321-13.321z" fill="#fff"/><path d="M811.229 595.99l14.701 14.439m-.954.229l14.792-15.5m-1.245.013l14.778 14.316m-.066-.705l-15.482 14.286m.08-.683l14.457 14.337m.247-.879l-16.246 15.97m1.125.225l-13.982-15.25m.852.334l-15.298 15.075m.795-.048l-14.445-14.124m.22.666l15.513-14.854m-.157.989l-13.609-13.713m-.22.751l14.94-15.64m-.602-.429l14.293 14.095m-.643.616l14.208-14.847m-.617-.63l14.398 13.898m.368-.195l-15.112 13.89m-.318-.405l14.104 14.05m.572-.534l-15.69 15.568m.507.656L824.08 637.32m.386-.268l-14.89 14.649m.246.41l-13.99-13.682m-.227.056l14.983-14.24m.425.481l-13.361-13.451m-.51.4l14.735-15.296" stroke="#521b93" stroke-linecap="round" stroke-linejoin="round" stroke-width="2"/></g><g filter="url(#a)"><path d="M618.56 605.04l2.051 25.992-26.361-7.315 34.918 28.25-1.65-24.719 27.296 18.365-1.596-30.43 22.532 8.534-31.36-28.251 1.468 28.957-27.297-19.383z" fill="#fff"/><path d="M618.53 604.696l2.343 26.486m.579-.344l-28.305-7.631m-.05-.426l36.62 29.804m-.673.126l-1.613-26.27m-.371.212l28.263 19.015m-.507-.045l-1.563-31.163m-.733.431l24.127 9.058m.052.37l-33.213-29.362m.607.158l1.702 30.51m.256-.751l-28.353-20.327m-.39.016l1.722.655m-.286-.655l2.32 25.972m.495.244l-27.596-7.443m-.667-.77l35.89 29.238m-.02.783l-1.687-25.782m-.27-.313l27.745 18.658m-.13.354l-1.517-30.444m-.64-.353l23.498 8.79m.619.743l-32.59-28.797m.082-.457l1.652 29.537m.23.249l-27.885-19.945m-.8-.497l1.23.54" stroke="#521b93" stroke-linecap="round" stroke-linejoin="round" stroke-width="2"/></g><g filter="url(#a)"><circle cx="407" cy="605.467" r="10" fill="#fff"/><path d="M414.071 598.396c3.573 4.408 3.442 10.322 0 14.142-4.12 4.185-10.694 4.09-14.142 0-4.418-4.422-4.165-10.342 0-14.142 4.384-3.628 9.9-3.969 14.142 0m0 0c3.823 4.158 3.692 10.072.25 13.892-4.12 4.185-10.694 4.09-14.142 0-4.418-4.422-4.165-10.342 0-14.142 4.384-3.628 9.9-3.969 14.142 0" stroke="#521b93" stroke-linecap="round" stroke-linejoin="round" stroke-width="2"/></g><g filter="url(#a)"><circle cx="408.5" cy="641.967" r="10" fill="#fff"/><path d="M415.571 634.896c3.43 4.082 4.258 9.732 0 14.142-4.133 4.423-10.147 3.672-14.142 0-3.45-3.736-4.27-10.1 0-14.142 3.721-3.845 10.515-3.553 14.142 0m0 0c3.68 3.832 4.508 9.482.25 13.892-4.133 4.423-10.147 3.672-14.142 0-3.45-3.736-4.27-10.1 0-14.142 3.721-3.845 10.515-3.553 14.142 0" stroke="#521b93" stroke-linecap="round" stroke-linejoin="round" stroke-width="2"/></g><g filter="url(#a)"><circle cx="484" cy="605.467" r="10" fill="#fff"/><path d="M491.071 598.396c4.392 3.756 3.969 10.246 0 14.142-4.146 3.557-10.704 4.359-14.142 0-3.586-4.154-4.375-9.857 0-14.142 4.163-4.061 10.025-4.241 14.142 0m0 0c4.642 3.506 4.219 9.996.25 13.892-4.146 3.557-10.704 4.359-14.142 0-3.586-4.154-4.375-9.857 0-14.142 4.163-4.061 10.025-4.241 14.142 0" stroke="#521b93" stroke-linecap="round" stroke-linejoin="round" stroke-width="2"/></g><g filter="url(#a)"><circle cx="482.5" cy="641.967" r="10" fill="#fff"/><path d="M489.571 634.896c4.25 3.43 3.68 10.76 0 14.142-4.16 3.796-10.157 3.94-14.142 0-3.723-3.468-3.375-10.719 0-14.142 3.5-4.278 10.64-3.825 14.142 0m0 0c4.5 3.18 3.93 10.51.25 13.892-4.16 3.796-10.157 3.94-14.142 0-3.723-3.468-3.375-10.719 0-14.142 3.5-4.278 10.64-3.825 14.142 0" stroke="#521b93" stroke-linecap="round" stroke-linejoin="round" stroke-width="2"/></g><path d="M742 403.55c2.375-104.39 88.934-179.337 178.483-178.484 97.303-2.417 181.184 86.392 178.484 178.484-2.11 92.644-83.695 188.126-178.484 178.483M742 403.55c2.75-104.765 89.309-179.712 178.858-178.859 97.303-2.417 181.184 86.392 178.484 178.484-2.11 92.644-83.695 188.126-178.484 178.483" stroke="#929292" stroke-linecap="round" stroke-linejoin="round" stroke-width="3"/><path d="M244.75 492.35v-45.2c0-3.119 11.648-5.65 26-5.65s26 2.531 26 5.65v45.2c0 3.119-11.648 5.65-26 5.65s-26-2.531-26-5.65" fill="#fff"/><path d="M244.744 493.03l.424-46.886c-.315-2.05 11.595-3.245 25.582-4.644 13.653.84 26.02 2.76 26 5.65m0-.493l.008 46.646c.17 2.05-11.748 5.432-26.008 4.697-14.935.636-25.742-2.828-26-5.65m0-45.2c.006 3.143 11.55 4.276 26 5.65 13.306 1.138 25.775-2.327 26-5.65m-51.981 45.754l.491-46.22c-.157-2.84 11.753-4.035 25.74-5.434 13.653.84 26.02 2.76 26 5.65m-.018-.368l-.075 45.723c.271 2.848-11.647 6.23-25.907 5.495-14.935.636-25.742-2.828-26-5.65m-.25-44.95c.256 2.893 11.8 4.026 26.25 5.4 13.306 1.138 25.775-2.327 26-5.65" stroke="#521b93" stroke-linecap="round" stroke-linejoin="round" stroke-width="2"/><path d="M484.3 489.5h-77.6c-5.354 0-9.7-8.848-9.7-19.75s4.346-19.75 9.7-19.75h77.6c5.354 0 9.7 8.848 9.7 19.75s-4.346 19.75-9.7 19.75" fill="#fff"/><path d="M484.784 489.498l-78.457.369c-5.345-.668-9.319-8.978-9.327-20.117-.738-11.965 4.809-19.566 9.7-19.75m-.298-.002l78.453.414c5.327-.513 10.081 9.392 9.145 19.338.35 10.036-3.877 19.702-9.7 19.75m-77.6 0c5.491-.346 9.126-8.163 9.7-19.75-.418-10.29-4.7-19.46-9.7-19.75m78.209 39.406l-77.8.387c-5.877-.844-9.851-9.154-9.859-20.293-.738-11.965 4.809-19.566 9.7-19.75m-.423.061l77.462.44c6.443-.602 11.197 9.303 10.261 19.249.35 10.036-3.877 19.702-9.7 19.75m-77.85.25c5.741-.596 9.376-8.413 9.95-20-.418-10.29-4.7-19.46-9.7-19.75" stroke="#521b93" stroke-linecap="round" stroke-linejoin="round" stroke-width="2"/><path d="M604.875 472.785c-13.172-3.035-7.92-28.582 13.093-24.223 1.95-8.497 26.384-7.117 26.224 0 15.322-9.103 34.901 9.05 21.768 18.153 15.76 4.414-.199 28.195-13.132 24.223-1.035 6.62-24.156 8.938-26.185 0-13.092 9.545-40.391-5.132-21.768-18.153z" fill="#fff"/><path d="M604.875 472.785c-13.105-3.65-6.68-29.877 13.093-24.223 1.981-7.859 25.913-7.15 26.224 0 14.455-7.852 36.41 8.896 21.768 18.153 16.52 3.694-1.072 28.63-13.132 24.223-.977 6.996-24.76 8.7-26.185 0-13.782 9.917-38.792-6.024-21.768-18.153m0 0c-12.855-3.9-6.43-30.127 13.343-24.473 1.981-7.859 25.913-7.15 26.224 0 14.455-7.852 36.41 8.896 21.768 18.153 16.52 3.694-1.072 28.63-13.132 24.223-.977 6.996-24.76 8.7-26.185 0-13.782 9.917-38.792-6.024-21.768-18.153" stroke="#521b93" stroke-linecap="round" stroke-linejoin="round" stroke-width="2"/><path d="M776 469.75l27.793-28.25v18.664h41.414V441.5L873 469.75 845.207 498v-18.664h-41.414V498z" fill="#fff"/><path d="M775.544 470.207l28.59-28.676m-.45.096l.287 19.043m-.814-.907l42.145-.015m-.466.59l.136-19.395m-.185.305l29.165 28.942m-.086-1.311l-28.92 29.126m.31.59l.025-19.96m.543.941l-42.13-.442m.341-.448l-.354 19.874m.572.325l-28.777-29.675m.135.813l28.195-28.178m.061-.344l.3 18.136m-.885-.004l41.683-.063m-.094.642l.162-18.91m-.056-.246l28.41 28.307m.643-.57l-28.595 28.827m-.068.85l-.04-19.025m.621.052l-41.796-.482m.114-.453l-.389 19.615m.415.666l-28.22-29.166" stroke="#521b93" stroke-linecap="round" stroke-linejoin="round" stroke-width="2"/><path d="M790.505 399.219c5.288-65.652 56.3-125.99 126.348-126.348 69.21 6.217 128.387 57.76 126.348 126.348 1.951 76.156-56.6 127.044-126.348 126.347M790.505 399.22c5.663-66.027 56.676-126.365 126.723-126.723 69.21 6.217 128.387 57.76 126.348 126.348 1.951 76.156-56.6 127.044-126.348 126.347" stroke="#945200" stroke-linecap="round" stroke-linejoin="round" stroke-width="3"/><text transform="translate(883.827 294)" fill="#945200"><tspan font-family="Roboto Condensed" font-size="16" font-weight="400" x="0" y="15">Reactiverse</tspan></text><text transform="translate(880.998 242)" fill="#424242"><tspan font-family="Roboto Condensed" font-size="16" font-weight="400" x="0" y="15">Community</tspan></text><path d="M842.693 400.622c-3.028-42.679 29.69-74.774 75.564-75.564 41.589.113 76.86 32.514 75.564 75.564 3.227 43.524-32.268 72.315-75.564 75.564m-75.564-75.564c-2.653-43.054 30.066-75.149 75.939-75.939 41.589.113 76.86 32.514 75.564 75.564 3.227 43.524-32.268 72.315-75.564 75.564" stroke="#521b93" stroke-linecap="round" stroke-linejoin="round" stroke-width="3"/><text transform="translate(877.394 380.219)" fill="#521b93"><tspan font-family="Roboto Condensed" font-size="16" font-weight="400" x="0" y="15">Eclipse Vert.x</tspan> <tspan font-family="Roboto Condensed" font-size="16" font-weight="400" x="25.449" y="34">Stack</tspan></text><text transform="translate(200.186 522)" fill="#521b93"><tspan font-family="Roboto Condensed" font-size="14" font-weight="400" x="0" y="13">Reactive database clients</tspan></text><text transform="translate(403.5 522)" fill="#521b93"><tspan font-family="Roboto Condensed" font-size="14" font-weight="400" x="0" y="13">Messaging and</tspan> <tspan font-family="Roboto Condensed" font-size="14" font-weight="400" x="1.47" y="29"> event streams</tspan></text><text transform="translate(576.81 522)" fill="#521b93"><tspan font-family="Roboto Condensed" font-size="14" font-weight="400" x="0" y="13">Web APIs and clients</tspan></text><path d="M811.755 596.507l13.321 13.32 14.474-14.473 13.313 13.313-14.474 14.474 13.321 13.32-14.465 14.466-13.321-13.321-14.474 14.474-13.313-13.313 14.474-14.474-13.321-13.321z" fill="#fff"/><path d="M811.229 595.99l14.701 14.439m-.954.229l14.792-15.5m-1.245.013l14.778 14.316m-.066-.705l-15.482 14.286m.08-.683l14.457 14.337m.247-.879l-16.246 15.97m1.125.225l-13.982-15.25m.852.334l-15.298 15.075m.795-.048l-14.445-14.124m.22.666l15.513-14.854m-.157.989l-13.609-13.713m-.22.751l14.94-15.64m-.602-.429l14.293 14.095m-.643.616l14.208-14.847m-.617-.63l14.398 13.898m.368-.195l-15.112 13.89m-.318-.405l14.104 14.05m.572-.534l-15.69 15.568m.507.656L824.08 637.32m.386-.268l-14.89 14.649m.246.41l-13.99-13.682m-.227.056l14.983-14.24m.425.481l-13.361-13.451m-.51.4l14.735-15.296" stroke="#521b93" stroke-linecap="round" stroke-linejoin="round" stroke-width="2"/><text transform="translate(576.983 673.467)" fill="#521b93"><tspan font-family="Roboto Condensed" font-size="14" font-weight="400" x="0" y="13">Micro-services and</tspan> <tspan font-family="Roboto Condensed" font-size="14" font-weight="400" x="18.758" y="29">cloud native</tspan></text><path d="M618.56 605.04l2.051 25.992-26.361-7.315 34.918 28.25-1.65-24.719 27.296 18.365-1.596-30.43 22.532 8.534-31.36-28.251 1.468 28.957-27.297-19.383z" fill="#fff"/><path d="M618.53 604.696l2.343 26.486m.579-.344l-28.305-7.631m-.05-.426l36.62 29.804m-.673.126l-1.613-26.27m-.371.212l28.263 19.015m-.507-.045l-1.563-31.163m-.733.431l24.127 9.058m.052.37l-33.213-29.362m.607.158l1.702 30.51m.256-.751l-28.353-20.327m-.39.016l1.722.655m-.286-.655l2.32 25.972m.495.244l-27.596-7.443m-.667-.77l35.89 29.238m-.02.783l-1.687-25.782m-.27-.313l27.745 18.658m-.13.354l-1.517-30.444m-.64-.353l23.498 8.79m.619.743l-32.59-28.797m.082-.457l1.652 29.537m.23.249l-27.885-19.945m-.8-.497l1.23.54" stroke="#521b93" stroke-linecap="round" stroke-linejoin="round" stroke-width="2"/><text transform="translate(779.01 673.467)" fill="#521b93"><tspan font-family="Roboto Condensed" font-size="14" font-weight="400" x="5.626" y="13">Security and</tspan> <tspan font-family="Roboto Condensed" font-size="14" font-weight="400" x="0" y="29">authentication</tspan></text><text transform="translate(794.65 522)" fill="#521b93"><tspan font-family="Roboto Condensed" font-size="14" font-weight="400" x="0" y="13">Integration</tspan></text><circle cx="407" cy="605.467" r="10" fill="#fff"/><path d="M414.071 598.396c3.573 4.408 3.442 10.322 0 14.142-4.12 4.185-10.694 4.09-14.142 0-4.418-4.422-4.165-10.342 0-14.142 4.384-3.628 9.9-3.969 14.142 0m0 0c3.823 4.158 3.692 10.072.25 13.892-4.12 4.185-10.694 4.09-14.142 0-4.418-4.422-4.165-10.342 0-14.142 4.384-3.628 9.9-3.969 14.142 0" stroke="#521b93" stroke-linecap="round" stroke-linejoin="round" stroke-width="2"/><circle cx="408.5" cy="641.967" r="10" fill="#fff"/><path d="M415.571 634.896c3.43 4.082 4.258 9.732 0 14.142-4.133 4.423-10.147 3.672-14.142 0-3.45-3.736-4.27-10.1 0-14.142 3.721-3.845 10.515-3.553 14.142 0m0 0c3.68 3.832 4.508 9.482.25 13.892-4.133 4.423-10.147 3.672-14.142 0-3.45-3.736-4.27-10.1 0-14.142 3.721-3.845 10.515-3.553 14.142 0" stroke="#521b93" stroke-linecap="round" stroke-linejoin="round" stroke-width="2"/><circle cx="484" cy="605.467" r="10" fill="#fff"/><path d="M491.071 598.396c4.392 3.756 3.969 10.246 0 14.142-4.146 3.557-10.704 4.359-14.142 0-3.586-4.154-4.375-9.857 0-14.142 4.163-4.061 10.025-4.241 14.142 0m0 0c4.642 3.506 4.219 9.996.25 13.892-4.146 3.557-10.704 4.359-14.142 0-3.586-4.154-4.375-9.857 0-14.142 4.163-4.061 10.025-4.241 14.142 0" stroke="#521b93" stroke-linecap="round" stroke-linejoin="round" stroke-width="2"/><circle cx="482.5" cy="641.967" r="10" fill="#fff"/><path d="M489.571 634.896c4.25 3.43 3.68 10.76 0 14.142-4.16 3.796-10.157 3.94-14.142 0-3.723-3.468-3.375-10.719 0-14.142 3.5-4.278 10.64-3.825 14.142 0m0 0c4.5 3.18 3.93 10.51.25 13.892-4.16 3.796-10.157 3.94-14.142 0-3.723-3.468-3.375-10.719 0-14.142 3.5-4.278 10.64-3.825 14.142 0" stroke="#521b93" stroke-linecap="round" stroke-linejoin="round" stroke-width="2"/><text transform="translate(411.631 673.467)" fill="#521b93"><tspan font-family="Roboto Condensed" font-size="14" font-weight="400" x="0" y="13">Clustering</tspan></text><path d="M416.34 605.468l57.636-.045m-57.385-.431l56.765-.026m-56.085 32.775l57.434-28.498m-57.225 28.165l56.707-28.047m8.753 22.489l.21-15.451m-.17 15.199l.342-14.616m-75.099 15.968l-1.512-17.121m1.686 16.878l-1.484-16.304m67.113 21.466l-58.766-28.367m58.932 28.29l-58.039-28.036m56.544 32.234l-53.163-1.036m53.412.844l-52.386-.85" stroke="#521b93" stroke-linecap="round" stroke-linejoin="round" stroke-width="2"/><text transform="translate(233.953 587.033)" fill="#521b93"><tspan font-family="Roboto Condensed" font-size="64" font-weight="300" x="0" y="59">(…)</tspan></text></g></svg>